<svg xmlns="http://www.w3.org/2000/svg" width="920" height="520" viewBox="0 0 920 520">
<rect width="100%" height="100%" fill="white"/>
<text x="460.0" y="32" text-anchor="middle" font-size="22" font-family="sans-serif" font-weight="600">Time per output token vs concurrency</text>
<line x1="90" y1="445.00" x2="885" y2="445.00" stroke="#e5e7eb"/>
<text x="78" y="449.00" text-anchor="end" font-size="12" font-family="sans-serif" fill="#4b5563">0.00</text>
<line x1="90" y1="370.00" x2="885" y2="370.00" stroke="#e5e7eb"/>
<text x="78" y="374.00" text-anchor="end" font-size="12" font-family="sans-serif" fill="#4b5563">40.00</text>
<line x1="90" y1="295.00" x2="885" y2="295.00" stroke="#e5e7eb"/>
<text x="78" y="299.00" text-anchor="end" font-size="12" font-family="sans-serif" fill="#4b5563">80.00</text>
<line x1="90" y1="220.00" x2="885" y2="220.00" stroke="#e5e7eb"/>
<text x="78" y="224.00" text-anchor="end" font-size="12" font-family="sans-serif" fill="#4b5563">120.00</text>
<line x1="90" y1="145.00" x2="885" y2="145.00" stroke="#e5e7eb"/>
<text x="78" y="149.00" text-anchor="end" font-size="12" font-family="sans-serif" fill="#4b5563">160.00</text>
<line x1="90" y1="70.00" x2="885" y2="70.00" stroke="#e5e7eb"/>
<text x="78" y="74.00" text-anchor="end" font-size="12" font-family="sans-serif" fill="#4b5563">200.00</text>
<line x1="90.00" y1="70" x2="90.00" y2="445" stroke="#f3f4f6"/>
<text x="90.00" y="470" text-anchor="middle" font-size="13" font-family="sans-serif">1</text>
<line x1="98.03" y1="70" x2="98.03" y2="445" stroke="#f3f4f6"/>
<text x="98.03" y="470" text-anchor="middle" font-size="13" font-family="sans-serif">2</text>
<line x1="122.12" y1="70" x2="122.12" y2="445" stroke="#f3f4f6"/>
<text x="122.12" y="470" text-anchor="middle" font-size="13" font-family="sans-serif">5</text>
<line x1="162.27" y1="70" x2="162.27" y2="445" stroke="#f3f4f6"/>
<text x="162.27" y="470" text-anchor="middle" font-size="13" font-family="sans-serif">10</text>
<line x1="242.58" y1="70" x2="242.58" y2="445" stroke="#f3f4f6"/>
<text x="242.58" y="470" text-anchor="middle" font-size="13" font-family="sans-serif">20</text>
<line x1="483.48" y1="70" x2="483.48" y2="445" stroke="#f3f4f6"/>
<text x="483.48" y="470" text-anchor="middle" font-size="13" font-family="sans-serif">50</text>
<line x1="885.00" y1="70" x2="885.00" y2="445" stroke="#f3f4f6"/>
<text x="885.00" y="470" text-anchor="middle" font-size="13" font-family="sans-serif">100</text>
<line x1="90" y1="70" x2="90" y2="445" stroke="#111827"/>
<line x1="90" y1="445" x2="885" y2="445" stroke="#111827"/>
<text x="487.5" y="500" text-anchor="middle" font-size="14" font-family="sans-serif">Concurrency</text>
<text transform="translate(22 257.5) rotate(-90)" text-anchor="middle" font-size="14" font-family="sans-serif">Milliseconds / token</text>
<polyline points="90.00,370.68 98.03,365.89 122.12,359.13 162.27,310.56 242.58,222.09 483.48,235.95 885.00,225.84" fill="none" stroke="#2563eb" stroke-width="3"/>
<circle cx="90.00" cy="370.68" r="4" fill="#2563eb"/>
<circle cx="98.03" cy="365.89" r="4" fill="#2563eb"/>
<circle cx="122.12" cy="359.13" r="4" fill="#2563eb"/>
<circle cx="162.27" cy="310.56" r="4" fill="#2563eb"/>
<circle cx="242.58" cy="222.09" r="4" fill="#2563eb"/>
<circle cx="483.48" cy="235.95" r="4" fill="#2563eb"/>
<circle cx="885.00" cy="225.84" r="4" fill="#2563eb"/>
<line x1="102" y1="52" x2="126" y2="52" stroke="#2563eb" stroke-width="3"/>
<text x="132" y="56" font-size="13" font-family="sans-serif">p50</text>
<polyline points="90.00,367.54 98.03,338.92 122.12,314.36 162.27,268.14 242.58,180.34 483.48,172.04 885.00,181.90" fill="none" stroke="#dc2626" stroke-width="3"/>
<circle cx="90.00" cy="367.54" r="4" fill="#dc2626"/>
<circle cx="98.03" cy="338.92" r="4" fill="#dc2626"/>
<circle cx="122.12" cy="314.36" r="4" fill="#dc2626"/>
<circle cx="162.27" cy="268.14" r="4" fill="#dc2626"/>
<circle cx="242.58" cy="180.34" r="4" fill="#dc2626"/>
<circle cx="483.48" cy="172.04" r="4" fill="#dc2626"/>
<circle cx="885.00" cy="181.90" r="4" fill="#dc2626"/>
<line x1="292" y1="52" x2="316" y2="52" stroke="#dc2626" stroke-width="3"/>
<text x="322" y="56" font-size="13" font-family="sans-serif">p95</text>
<polyline points="90.00,366.64 98.03,335.16 122.12,310.83 162.27,224.41 242.58,175.77 483.48,150.98 885.00,165.64" fill="none" stroke="#059669" stroke-width="3"/>
<circle cx="90.00" cy="366.64" r="4" fill="#059669"/>
<circle cx="98.03" cy="335.16" r="4" fill="#059669"/>
<circle cx="122.12" cy="310.83" r="4" fill="#059669"/>
<circle cx="162.27" cy="224.41" r="4" fill="#059669"/>
<circle cx="242.58" cy="175.77" r="4" fill="#059669"/>
<circle cx="483.48" cy="150.98" r="4" fill="#059669"/>
<circle cx="885.00" cy="165.64" r="4" fill="#059669"/>
<line x1="482" y1="52" x2="506" y2="52" stroke="#059669" stroke-width="3"/>
<text x="512" y="56" font-size="13" font-family="sans-serif">p99</text>
</svg>
