<svg xmlns="http://www.w3.org/2000/svg" width="1180" height="605" viewBox="0 0 1180 605">
<rect width="100%" height="100%" fill="white"/>
<text x="590.0" y="32" text-anchor="middle" font-size="22" font-family="sans-serif" font-weight="600">Same-CPU direct output-throughput effect</text>
<line x1="100" y1="530.00" x2="1135" y2="530.00" stroke="#e5e7eb"/>
<text x="88" y="534.00" text-anchor="end" font-size="12" font-family="sans-serif" fill="#4b5563">-19.0</text>
<line x1="100" y1="453.00" x2="1135" y2="453.00" stroke="#e5e7eb"/>
<text x="88" y="457.00" text-anchor="end" font-size="12" font-family="sans-serif" fill="#4b5563">-4.0</text>
<line x1="100" y1="376.00" x2="1135" y2="376.00" stroke="#e5e7eb"/>
<text x="88" y="380.00" text-anchor="end" font-size="12" font-family="sans-serif" fill="#4b5563">11.1</text>
<line x1="100" y1="299.00" x2="1135" y2="299.00" stroke="#e5e7eb"/>
<text x="88" y="303.00" text-anchor="end" font-size="12" font-family="sans-serif" fill="#4b5563">26.2</text>
<line x1="100" y1="222.00" x2="1135" y2="222.00" stroke="#e5e7eb"/>
<text x="88" y="226.00" text-anchor="end" font-size="12" font-family="sans-serif" fill="#4b5563">41.2</text>
<line x1="100" y1="145.00" x2="1135" y2="145.00" stroke="#e5e7eb"/>
<text x="88" y="149.00" text-anchor="end" font-size="12" font-family="sans-serif" fill="#4b5563">56.3</text>
<line x1="100.00" y1="145" x2="100.00" y2="530" stroke="#f3f4f6"/>
<text x="100.00" y="555" text-anchor="middle" font-size="13" font-family="sans-serif">1</text>
<line x1="272.50" y1="145" x2="272.50" y2="530" stroke="#f3f4f6"/>
<text x="272.50" y="555" text-anchor="middle" font-size="13" font-family="sans-serif">2</text>
<line x1="445.00" y1="145" x2="445.00" y2="530" stroke="#f3f4f6"/>
<text x="445.00" y="555" text-anchor="middle" font-size="13" font-family="sans-serif">5</text>
<line x1="617.50" y1="145" x2="617.50" y2="530" stroke="#f3f4f6"/>
<text x="617.50" y="555" text-anchor="middle" font-size="13" font-family="sans-serif">10</text>
<line x1="790.00" y1="145" x2="790.00" y2="530" stroke="#f3f4f6"/>
<text x="790.00" y="555" text-anchor="middle" font-size="13" font-family="sans-serif">20</text>
<line x1="962.50" y1="145" x2="962.50" y2="530" stroke="#f3f4f6"/>
<text x="962.50" y="555" text-anchor="middle" font-size="13" font-family="sans-serif">50</text>
<line x1="1135.00" y1="145" x2="1135.00" y2="530" stroke="#f3f4f6"/>
<text x="1135.00" y="555" text-anchor="middle" font-size="13" font-family="sans-serif">100</text>
<line x1="100" y1="145" x2="100" y2="530" stroke="#111827"/>
<line x1="100" y1="530" x2="1135" y2="530" stroke="#111827"/>
<text x="617.5" y="585" text-anchor="middle" font-size="14" font-family="sans-serif">Concurrency</text>
<text transform="translate(25 337.5) rotate(-90)" text-anchor="middle" font-size="14" font-family="sans-serif">Percent</text>
<line x1="100" y1="58" x2="124" y2="58" stroke="#1d4ed8" stroke-width="3"/>
<text x="131" y="62" font-size="12" font-family="sans-serif">CPU6 MTP2 vs CPU6 baseline</text>
<polyline points="100.00,171.55 272.50,275.77 445.00,405.83 617.50,443.28 790.00,497.87 962.50,476.49 1135.00,489.08" fill="none" stroke="#1d4ed8" stroke-width="2.5"/>
<circle cx="100.00" cy="171.55" r="3.5" fill="#1d4ed8"/>
<circle cx="272.50" cy="275.77" r="3.5" fill="#1d4ed8"/>
<circle cx="445.00" cy="405.83" r="3.5" fill="#1d4ed8"/>
<circle cx="617.50" cy="443.28" r="3.5" fill="#1d4ed8"/>
<circle cx="790.00" cy="497.87" r="3.5" fill="#1d4ed8"/>
<circle cx="962.50" cy="476.49" r="3.5" fill="#1d4ed8"/>
<circle cx="1135.00" cy="489.08" r="3.5" fill="#1d4ed8"/>
<line x1="640" y1="58" x2="664" y2="58" stroke="#9333ea" stroke-width="3"/>
<text x="671" y="62" font-size="12" font-family="sans-serif">CPU8 MTP2 vs CPU8 baseline</text>
<polyline points="100.00,290.42 272.50,376.33 445.00,385.00 617.50,450.80 790.00,483.18 962.50,437.49 1135.00,431.78" fill="none" stroke="#9333ea" stroke-width="2.5"/>
<circle cx="100.00" cy="290.42" r="3.5" fill="#9333ea"/>
<circle cx="272.50" cy="376.33" r="3.5" fill="#9333ea"/>
<circle cx="445.00" cy="385.00" r="3.5" fill="#9333ea"/>
<circle cx="617.50" cy="450.80" r="3.5" fill="#9333ea"/>
<circle cx="790.00" cy="483.18" r="3.5" fill="#9333ea"/>
<circle cx="962.50" cy="437.49" r="3.5" fill="#9333ea"/>
<circle cx="1135.00" cy="431.78" r="3.5" fill="#9333ea"/>
<line x1="100" y1="83" x2="124" y2="83" stroke="#059669" stroke-width="3"/>
<text x="131" y="87" font-size="12" font-family="sans-serif">CPU6 MTP2 + legacy capacity bundle vs CPU6 MTP2</text>
<polyline points="100.00,456.57 272.50,431.69 445.00,452.89 617.50,445.80 790.00,430.13 962.50,423.85 1135.00,422.45" fill="none" stroke="#059669" stroke-width="2.5"/>
<circle cx="100.00" cy="456.57" r="3.5" fill="#059669"/>
<circle cx="272.50" cy="431.69" r="3.5" fill="#059669"/>
<circle cx="445.00" cy="452.89" r="3.5" fill="#059669"/>
<circle cx="617.50" cy="445.80" r="3.5" fill="#059669"/>
<circle cx="790.00" cy="430.13" r="3.5" fill="#059669"/>
<circle cx="962.50" cy="423.85" r="3.5" fill="#059669"/>
<circle cx="1135.00" cy="422.45" r="3.5" fill="#059669"/>
<line x1="640" y1="83" x2="664" y2="83" stroke="#e11d48" stroke-width="3"/>
<text x="671" y="87" font-size="12" font-family="sans-serif">CPU8 MTP2 + legacy capacity bundle vs CPU8 MTP2</text>
<polyline points="100.00,364.92 272.50,343.69 445.00,434.13 617.50,418.00 790.00,428.03 962.50,451.85 1135.00,483.59" fill="none" stroke="#e11d48" stroke-width="2.5"/>
<circle cx="100.00" cy="364.92" r="3.5" fill="#e11d48"/>
<circle cx="272.50" cy="343.69" r="3.5" fill="#e11d48"/>
<circle cx="445.00" cy="434.13" r="3.5" fill="#e11d48"/>
<circle cx="617.50" cy="418.00" r="3.5" fill="#e11d48"/>
<circle cx="790.00" cy="428.03" r="3.5" fill="#e11d48"/>
<circle cx="962.50" cy="451.85" r="3.5" fill="#e11d48"/>
<circle cx="1135.00" cy="483.59" r="3.5" fill="#e11d48"/>
<line x1="100" y1="108" x2="124" y2="108" stroke="#ea580c" stroke-width="3"/>
<text x="131" y="112" font-size="12" font-family="sans-serif">CPU8 MTP2 + KV768 only vs CPU8 MTP2</text>
<polyline points="100.00,439.39 272.50,416.55 445.00,503.45 617.50,484.66 790.00,485.84 962.50,451.32 1135.00,443.62" fill="none" stroke="#ea580c" stroke-width="2.5"/>
<circle cx="100.00" cy="439.39" r="3.5" fill="#ea580c"/>
<circle cx="272.50" cy="416.55" r="3.5" fill="#ea580c"/>
<circle cx="445.00" cy="503.45" r="3.5" fill="#ea580c"/>
<circle cx="617.50" cy="484.66" r="3.5" fill="#ea580c"/>
<circle cx="790.00" cy="485.84" r="3.5" fill="#ea580c"/>
<circle cx="962.50" cy="451.32" r="3.5" fill="#ea580c"/>
<circle cx="1135.00" cy="443.62" r="3.5" fill="#ea580c"/>
<line x1="640" y1="108" x2="664" y2="108" stroke="#0891b2" stroke-width="3"/>
<text x="671" y="112" font-size="12" font-family="sans-serif">CPU8 MTP2 + maxseq24 only vs CPU8 MTP2</text>
<polyline points="100.00,387.39 272.50,346.65 445.00,435.71 617.50,434.61 790.00,440.52 962.50,447.49 1135.00,460.41" fill="none" stroke="#0891b2" stroke-width="2.5"/>
<circle cx="100.00" cy="387.39" r="3.5" fill="#0891b2"/>
<circle cx="272.50" cy="346.65" r="3.5" fill="#0891b2"/>
<circle cx="445.00" cy="435.71" r="3.5" fill="#0891b2"/>
<circle cx="617.50" cy="434.61" r="3.5" fill="#0891b2"/>
<circle cx="790.00" cy="440.52" r="3.5" fill="#0891b2"/>
<circle cx="962.50" cy="447.49" r="3.5" fill="#0891b2"/>
<circle cx="1135.00" cy="460.41" r="3.5" fill="#0891b2"/>
</svg>
